<?xml version="1.0" encoding="UTF-8"?>
<svg xmlns="http://www.w3.org/2000/svg" width="1600" height="800" viewBox="0 0 1600 800" role="img" aria-labelledby="title desc">
  <title id="title">Stylized Toronto Skyline (Layered Illustration)</title>
  <desc id="desc">A multi‑layer vector illustration approximating a professional skyline photo: gradient sunrise sky, atmospheric haze, layered building silhouettes, CN Tower, and water reflection.</desc>
  <defs>
    <linearGradient id="sky" x1="0" y1="0" x2="0" y2="1">
      <stop offset="0%" stop-color="#ffd9a8"/>
      <stop offset="40%" stop-color="#ffb56b"/>
      <stop offset="85%" stop-color="#2d4373"/>
      <stop offset="100%" stop-color="#1c2742"/>
    </linearGradient>
    <linearGradient id="water" x1="0" y1="0" x2="0" y2="1">
      <stop offset="0%" stop-color="#244060"/>
      <stop offset="80%" stop-color="#0a1524"/>
    </linearGradient>
    <linearGradient id="glass" x1="0" y1="0" x2="0" y2="1">
      <stop offset="0%" stop-color="#d8e9f7" stop-opacity="0.9"/>
      <stop offset="100%" stop-color="#6ea1c9" stop-opacity="0.7"/>
    </linearGradient>
    <filter id="haze" x="-10%" y="-10%" width="120%" height="120%">
      <feGaussianBlur stdDeviation="15"/>
    </filter>
    <linearGradient id="towerLight" x1="0" y1="0" x2="0" y2="1">
      <stop offset="0%" stop-color="#ffffff" stop-opacity="0.85"/>
      <stop offset="100%" stop-color="#ffffff" stop-opacity="0"/>
    </linearGradient>
  </defs>
  <!-- Sky -->
  <rect width="1600" height="520" fill="url(#sky)"/>
  <!-- Water -->
  <rect y="520" width="1600" height="280" fill="url(#water)"/>
  <!-- Distant haze silhouettes -->
  <g fill="#ffffff" opacity="0.15" filter="url(#haze)">
    <rect x="80" y="350" width="120" height="150"/>
    <rect x="250" y="330" width="160" height="170"/>
    <rect x="470" y="360" width="110" height="140"/>
    <rect x="620" y="325" width="180" height="175"/>
    <rect x="840" y="345" width="140" height="155"/>
    <rect x="1010" y="335" width="170" height="165"/>
    <rect x="1210" y="352" width="130" height="148"/>
  </g>
  <!-- Mid layer buildings -->
  <g fill="#2d4260" opacity="0.55">
    <rect x="60" y="300" width="140" height="200"/>
    <rect x="220" y="280" width="150" height="220"/>
    <rect x="400" y="305" width="120" height="195"/>
    <rect x="550" y="275" width="170" height="225"/>
    <rect x="760" y="295" width="140" height="205"/>
    <rect x="930" y="285" width="160" height="215"/>
    <rect x="1110" y="300" width="130" height="200"/>
    <rect x="1255" y="310" width="95" height="190"/>
    <rect x="1365" y="295" width="120" height="205"/>
  </g>
  <!-- Foreground detailed buildings -->
  <g>
    <g fill="#0f2033">
      <rect x="100" y="250" width="140" height="250"/>
      <rect x="270" y="240" width="160" height="260"/>
      <rect x="460" y="260" width="120" height="240"/>
      <rect x="610" y="230" width="190" height="270"/>
      <rect x="840" y="255" width="150" height="245"/>
      <rect x="1015" y="245" width="170" height="255"/>
      <rect x="1215" y="265" width="120" height="235"/>
      <rect x="1355" y="250" width="130" height="250"/>
    </g>
    <!-- Simulated window columns -->
    <g fill="url(#glass)" opacity="0.7">
      <rect x="114" y="260" width="16" height="230"/>
      <rect x="138" y="260" width="16" height="230"/>
      <rect x="162" y="260" width="16" height="230"/>
      <rect x="186" y="260" width="16" height="230"/>
      <rect x="453" y="270" width="14" height="210"/>
      <rect x="472" y="270" width="14" height="210"/>
      <rect x="491" y="270" width="14" height="210"/>
      <rect x="510" y="270" width="14" height="210"/>
      <rect x="620" y="240" width="20" height="250"/>
      <rect x="646" y="240" width="20" height="250"/>
      <rect x="672" y="240" width="20" height="250"/>
      <rect x="698" y="240" width="20" height="250"/>
      <rect x="724" y="240" width="20" height="250"/>
      <rect x="1018" y="255" width="18" height="230"/>
      <rect x="1042" y="255" width="18" height="230"/>
      <rect x="1066" y="255" width="18" height="230"/>
      <rect x="1090" y="255" width="18" height="230"/>
    </g>
  </g>
  <!-- CN Tower foreground -->
  <g>
    <rect x="800" y="120" width="22" height="380" fill="#dfe7f2"/>
    <circle cx="811" cy="205" r="65" fill="#dfe7f2"/>
    <circle cx="811" cy="205" r="55" fill="#122233"/>
    <rect x="807" y="70" width="10" height="90" fill="#dfe7f2"/>
    <polygon points="812,25 828,70 796,70" fill="#e6eef7"/>
    <rect x="800" y="120" width="22" height="210" fill="url(#towerLight)"/>
  </g>
  <!-- Water reflections (simplified) -->
  <g opacity="0.18" fill="#9ec4e8">
    <rect x="100" y="520" width="140" height="40"/>
    <rect x="270" y="520" width="160" height="50"/>
    <rect x="610" y="520" width="190" height="55"/>
    <rect x="840" y="520" width="150" height="52"/>
    <rect x="1015" y="520" width="170" height="54"/>
    <rect x="1355" y="520" width="130" height="48"/>
    <rect x="800" y="520" width="22" height="80"/>
  </g>
  <!-- Subtle vignette -->
  <rect width="1600" height="800" fill="#000" opacity="0.15" style="mix-blend-mode:multiply"/>
</svg>
