<?xml version="1.0" encoding="UTF-8"?>
<svg xmlns="http://www.w3.org/2000/svg" width="800" height="400" viewBox="0 0 800 400" role="img" aria-labelledby="title desc">
  <title id="title">Toronto stylized skyline</title>
  <desc id="desc">Simplified, royalty-free vector silhouette of Toronto skyline including CN Tower.</desc>
  <defs>
    <linearGradient id="grad" x1="0" x2="0" y1="0" y2="1">
      <stop offset="0%" stop-color="#4dabf7" />
      <stop offset="100%" stop-color="#1864ab" />
    </linearGradient>
  </defs>
  <rect width="800" height="400" fill="url(#grad)" />
  <g fill="#ffffff" opacity="0.9">
    <rect x="40" y="230" width="55" height="110" rx="2" />
    <rect x="110" y="200" width="65" height="140" rx="2" />
    <rect x="190" y="250" width="50" height="90" rx="2" />
    <rect x="255" y="220" width="70" height="120" rx="2" />
    <!-- CN Tower -->
    <rect x="350" y="120" width="14" height="220" />
    <circle cx="357" cy="155" r="32" fill="#ffffff" />
    <rect x="353" y="70" width="6" height="80" />
    <polygon points="356,40 365,70 347,70" />
    <rect x="380" y="240" width="60" height="100" rx="2" />
    <rect x="455" y="210" width="55" height="130" rx="2" />
    <rect x="525" y="260" width="45" height="80" rx="2" />
    <rect x="585" y="230" width="65" height="110" rx="2" />
    <rect x="665" y="250" width="55" height="90" rx="2" />
  </g>
</svg>
